<mxfile host="app.diagrams.net" agent="Mozilla/5.0 (Macintosh; Intel Mac OS X 10_15_7) AppleWebKit/537.36 (KHTML, like Gecko) Chrome/138.0.0.0 Safari/537.36" version="28.2.5">
  <diagram name="Страница — 1" id="RX7I7vYC9iXQyV8PBkkz">
    <mxGraphModel dx="740" dy="491" grid="1" gridSize="10" guides="1" tooltips="1" connect="1" arrows="1" fold="1" page="1" pageScale="1" pageWidth="827" pageHeight="1169" math="0" shadow="0">
      <root>
        <mxCell id="0" />
        <mxCell id="1" parent="0" />
        <mxCell id="Dfy3eXQqgWdbZasmrI9A-6" value="Пользователь&lt;div&gt;&lt;br&gt;&lt;/div&gt;" style="shape=umlActor;verticalLabelPosition=bottom;verticalAlign=top;html=1;outlineConnect=0;" vertex="1" parent="1">
          <mxGeometry x="100" y="30" width="30" height="60" as="geometry" />
        </mxCell>
        <mxCell id="Dfy3eXQqgWdbZasmrI9A-7" value="" style="endArrow=none;dashed=1;html=1;dashPattern=1 3;strokeWidth=2;rounded=0;" edge="1" parent="1" source="Dfy3eXQqgWdbZasmrI9A-16" target="Dfy3eXQqgWdbZasmrI9A-6">
          <mxGeometry width="50" height="50" relative="1" as="geometry">
            <mxPoint x="115" y="330" as="sourcePoint" />
            <mxPoint x="440" y="270" as="targetPoint" />
          </mxGeometry>
        </mxCell>
        <mxCell id="Dfy3eXQqgWdbZasmrI9A-8" value="Кнопка" style="rounded=0;whiteSpace=wrap;html=1;" vertex="1" parent="1">
          <mxGeometry x="190" y="65" width="90" height="30" as="geometry" />
        </mxCell>
        <mxCell id="Dfy3eXQqgWdbZasmrI9A-9" value="Контроллер" style="rounded=0;whiteSpace=wrap;html=1;" vertex="1" parent="1">
          <mxGeometry x="310" y="65" width="90" height="30" as="geometry" />
        </mxCell>
        <mxCell id="Dfy3eXQqgWdbZasmrI9A-10" value="Модуль реле" style="rounded=0;whiteSpace=wrap;html=1;" vertex="1" parent="1">
          <mxGeometry x="460" y="65" width="90" height="35" as="geometry" />
        </mxCell>
        <mxCell id="Dfy3eXQqgWdbZasmrI9A-11" value="Индикатор" style="rounded=0;whiteSpace=wrap;html=1;" vertex="1" parent="1">
          <mxGeometry x="640" y="65" width="90" height="30" as="geometry" />
        </mxCell>
        <mxCell id="Dfy3eXQqgWdbZasmrI9A-12" value="" style="endArrow=none;dashed=1;html=1;dashPattern=1 3;strokeWidth=2;rounded=0;entryX=0.5;entryY=1;entryDx=0;entryDy=0;" edge="1" parent="1" source="Dfy3eXQqgWdbZasmrI9A-18" target="Dfy3eXQqgWdbZasmrI9A-8">
          <mxGeometry width="50" height="50" relative="1" as="geometry">
            <mxPoint x="235" y="330" as="sourcePoint" />
            <mxPoint x="110" y="210" as="targetPoint" />
          </mxGeometry>
        </mxCell>
        <mxCell id="Dfy3eXQqgWdbZasmrI9A-13" value="" style="endArrow=none;dashed=1;html=1;dashPattern=1 3;strokeWidth=2;rounded=0;entryX=0.5;entryY=1;entryDx=0;entryDy=0;" edge="1" parent="1">
          <mxGeometry width="50" height="50" relative="1" as="geometry">
            <mxPoint x="354.5" y="330" as="sourcePoint" />
            <mxPoint x="354.5" y="95" as="targetPoint" />
          </mxGeometry>
        </mxCell>
        <mxCell id="Dfy3eXQqgWdbZasmrI9A-14" value="" style="endArrow=none;dashed=1;html=1;dashPattern=1 3;strokeWidth=2;rounded=0;entryX=0.5;entryY=1;entryDx=0;entryDy=0;" edge="1" parent="1" source="Dfy3eXQqgWdbZasmrI9A-28">
          <mxGeometry width="50" height="50" relative="1" as="geometry">
            <mxPoint x="504.5" y="330" as="sourcePoint" />
            <mxPoint x="504.5" y="95" as="targetPoint" />
          </mxGeometry>
        </mxCell>
        <mxCell id="Dfy3eXQqgWdbZasmrI9A-15" value="" style="endArrow=none;dashed=1;html=1;dashPattern=1 3;strokeWidth=2;rounded=0;entryX=0.5;entryY=1;entryDx=0;entryDy=0;" edge="1" parent="1" source="Dfy3eXQqgWdbZasmrI9A-32">
          <mxGeometry width="50" height="50" relative="1" as="geometry">
            <mxPoint x="684.5" y="330" as="sourcePoint" />
            <mxPoint x="684.5" y="95" as="targetPoint" />
          </mxGeometry>
        </mxCell>
        <mxCell id="Dfy3eXQqgWdbZasmrI9A-17" value="" style="endArrow=none;dashed=1;html=1;dashPattern=1 3;strokeWidth=2;rounded=0;" edge="1" parent="1" target="Dfy3eXQqgWdbZasmrI9A-16">
          <mxGeometry width="50" height="50" relative="1" as="geometry">
            <mxPoint x="115" y="330" as="sourcePoint" />
            <mxPoint x="115" y="90" as="targetPoint" />
          </mxGeometry>
        </mxCell>
        <mxCell id="Dfy3eXQqgWdbZasmrI9A-16" value="" style="rounded=0;whiteSpace=wrap;html=1;" vertex="1" parent="1">
          <mxGeometry x="107.5" y="120" width="15" height="220" as="geometry" />
        </mxCell>
        <mxCell id="Dfy3eXQqgWdbZasmrI9A-19" value="" style="endArrow=none;dashed=1;html=1;dashPattern=1 3;strokeWidth=2;rounded=0;entryX=0.5;entryY=1;entryDx=0;entryDy=0;" edge="1" parent="1" target="Dfy3eXQqgWdbZasmrI9A-18">
          <mxGeometry width="50" height="50" relative="1" as="geometry">
            <mxPoint x="235" y="330" as="sourcePoint" />
            <mxPoint x="235" y="95" as="targetPoint" />
          </mxGeometry>
        </mxCell>
        <mxCell id="Dfy3eXQqgWdbZasmrI9A-18" value="" style="rounded=0;whiteSpace=wrap;html=1;" vertex="1" parent="1">
          <mxGeometry x="227.5" y="120" width="15" height="40" as="geometry" />
        </mxCell>
        <mxCell id="Dfy3eXQqgWdbZasmrI9A-20" value="" style="endArrow=classic;html=1;rounded=0;exitX=0.75;exitY=0;exitDx=0;exitDy=0;entryX=0;entryY=0;entryDx=0;entryDy=0;" edge="1" parent="1" source="Dfy3eXQqgWdbZasmrI9A-16" target="Dfy3eXQqgWdbZasmrI9A-18">
          <mxGeometry width="50" height="50" relative="1" as="geometry">
            <mxPoint x="370" y="320" as="sourcePoint" />
            <mxPoint x="420" y="270" as="targetPoint" />
          </mxGeometry>
        </mxCell>
        <mxCell id="Dfy3eXQqgWdbZasmrI9A-21" value="1 : Происходит&amp;nbsp;&lt;div&gt;нажатие кнопки&lt;/div&gt;" style="edgeLabel;html=1;align=center;verticalAlign=middle;resizable=0;points=[];" vertex="1" connectable="0" parent="Dfy3eXQqgWdbZasmrI9A-20">
          <mxGeometry x="-0.646" y="-1" relative="1" as="geometry">
            <mxPoint x="32" y="19" as="offset" />
          </mxGeometry>
        </mxCell>
        <mxCell id="Dfy3eXQqgWdbZasmrI9A-22" value="" style="rounded=0;whiteSpace=wrap;html=1;" vertex="1" parent="1">
          <mxGeometry x="347.5" y="160" width="15" height="120" as="geometry" />
        </mxCell>
        <mxCell id="Dfy3eXQqgWdbZasmrI9A-23" value="" style="endArrow=classic;html=1;rounded=0;entryX=0;entryY=0;entryDx=0;entryDy=0;" edge="1" parent="1" target="Dfy3eXQqgWdbZasmrI9A-22">
          <mxGeometry width="50" height="50" relative="1" as="geometry">
            <mxPoint x="240" y="160" as="sourcePoint" />
            <mxPoint x="347.5" y="159" as="targetPoint" />
          </mxGeometry>
        </mxCell>
        <mxCell id="Dfy3eXQqgWdbZasmrI9A-24" value="2 : Сигнал о&amp;nbsp;&lt;div&gt;нажатии кнопки&lt;/div&gt;" style="edgeLabel;html=1;align=center;verticalAlign=middle;resizable=0;points=[];" vertex="1" connectable="0" parent="Dfy3eXQqgWdbZasmrI9A-23">
          <mxGeometry x="-0.646" y="-1" relative="1" as="geometry">
            <mxPoint x="32" y="19" as="offset" />
          </mxGeometry>
        </mxCell>
        <mxCell id="Dfy3eXQqgWdbZasmrI9A-25" value="" style="rounded=0;whiteSpace=wrap;html=1;" vertex="1" parent="1">
          <mxGeometry x="356" y="181" width="15" height="30" as="geometry" />
        </mxCell>
        <mxCell id="Dfy3eXQqgWdbZasmrI9A-26" value="" style="endArrow=classic;html=1;rounded=0;entryX=1;entryY=0.25;entryDx=0;entryDy=0;" edge="1" parent="1" target="Dfy3eXQqgWdbZasmrI9A-25">
          <mxGeometry width="50" height="50" relative="1" as="geometry">
            <mxPoint x="363" y="164" as="sourcePoint" />
            <mxPoint x="420" y="270" as="targetPoint" />
            <Array as="points">
              <mxPoint x="390" y="164" />
              <mxPoint x="390" y="188" />
            </Array>
          </mxGeometry>
        </mxCell>
        <mxCell id="Dfy3eXQqgWdbZasmrI9A-27" value="3 : Проверка условия&lt;div&gt;[сигнал = newValue]&lt;/div&gt;" style="edgeLabel;html=1;align=center;verticalAlign=middle;resizable=0;points=[];" vertex="1" connectable="0" parent="Dfy3eXQqgWdbZasmrI9A-26">
          <mxGeometry x="0.0919" y="1" relative="1" as="geometry">
            <mxPoint x="29" y="-27" as="offset" />
          </mxGeometry>
        </mxCell>
        <mxCell id="Dfy3eXQqgWdbZasmrI9A-29" value="" style="endArrow=none;dashed=1;html=1;dashPattern=1 3;strokeWidth=2;rounded=0;entryX=0.5;entryY=1;entryDx=0;entryDy=0;" edge="1" parent="1" target="Dfy3eXQqgWdbZasmrI9A-28">
          <mxGeometry width="50" height="50" relative="1" as="geometry">
            <mxPoint x="504.5" y="330" as="sourcePoint" />
            <mxPoint x="504.5" y="95" as="targetPoint" />
          </mxGeometry>
        </mxCell>
        <mxCell id="Dfy3eXQqgWdbZasmrI9A-28" value="" style="rounded=0;whiteSpace=wrap;html=1;" vertex="1" parent="1">
          <mxGeometry x="497.5" y="231" width="15" height="109" as="geometry" />
        </mxCell>
        <mxCell id="Dfy3eXQqgWdbZasmrI9A-30" value="" style="endArrow=classic;html=1;rounded=0;exitX=1.122;exitY=0.592;exitDx=0;exitDy=0;entryX=0;entryY=0;entryDx=0;entryDy=0;exitPerimeter=0;" edge="1" parent="1" source="Dfy3eXQqgWdbZasmrI9A-22" target="Dfy3eXQqgWdbZasmrI9A-28">
          <mxGeometry width="50" height="50" relative="1" as="geometry">
            <mxPoint x="370" y="330" as="sourcePoint" />
            <mxPoint x="420" y="280" as="targetPoint" />
          </mxGeometry>
        </mxCell>
        <mxCell id="Dfy3eXQqgWdbZasmrI9A-31" value="4 : Изменить состояние&lt;div&gt;relay = !relay&lt;/div&gt;" style="edgeLabel;html=1;align=center;verticalAlign=middle;resizable=0;points=[];" vertex="1" connectable="0" parent="Dfy3eXQqgWdbZasmrI9A-30">
          <mxGeometry x="-0.345" relative="1" as="geometry">
            <mxPoint x="22" y="19" as="offset" />
          </mxGeometry>
        </mxCell>
        <mxCell id="Dfy3eXQqgWdbZasmrI9A-33" value="" style="endArrow=none;dashed=1;html=1;dashPattern=1 3;strokeWidth=2;rounded=0;entryX=0.5;entryY=1;entryDx=0;entryDy=0;" edge="1" parent="1" target="Dfy3eXQqgWdbZasmrI9A-32">
          <mxGeometry width="50" height="50" relative="1" as="geometry">
            <mxPoint x="684.5" y="330" as="sourcePoint" />
            <mxPoint x="684.5" y="95" as="targetPoint" />
          </mxGeometry>
        </mxCell>
        <mxCell id="Dfy3eXQqgWdbZasmrI9A-32" value="" style="rounded=0;whiteSpace=wrap;html=1;" vertex="1" parent="1">
          <mxGeometry x="677.5" y="256" width="15" height="94" as="geometry" />
        </mxCell>
        <mxCell id="Dfy3eXQqgWdbZasmrI9A-34" value="" style="endArrow=classic;html=1;rounded=0;exitX=0.948;exitY=0.214;exitDx=0;exitDy=0;entryX=0;entryY=0;entryDx=0;entryDy=0;exitPerimeter=0;" edge="1" parent="1" source="Dfy3eXQqgWdbZasmrI9A-28" target="Dfy3eXQqgWdbZasmrI9A-32">
          <mxGeometry width="50" height="50" relative="1" as="geometry">
            <mxPoint x="570" y="230" as="sourcePoint" />
            <mxPoint x="620" y="180" as="targetPoint" />
          </mxGeometry>
        </mxCell>
        <mxCell id="Dfy3eXQqgWdbZasmrI9A-35" value="6.1 :&amp;nbsp;&lt;span style=&quot;background-color: light-dark(#ffffff, var(--ge-dark-color, #121212)); color: light-dark(rgb(0, 0, 0), rgb(255, 255, 255));&quot;&gt;[relay = true]&lt;/span&gt;&lt;div&gt;&lt;span style=&quot;background-color: light-dark(#ffffff, var(--ge-dark-color, #121212)); color: light-dark(rgb(0, 0, 0), rgb(255, 255, 255));&quot;&gt;Сигнал о&amp;nbsp;&lt;/span&gt;&lt;/div&gt;&lt;div&gt;&lt;span style=&quot;background-color: light-dark(#ffffff, var(--ge-dark-color, #121212)); color: light-dark(rgb(0, 0, 0), rgb(255, 255, 255));&quot;&gt;включении светодиода&lt;/span&gt;&lt;/div&gt;" style="edgeLabel;html=1;align=center;verticalAlign=middle;resizable=0;points=[];" vertex="1" connectable="0" parent="Dfy3eXQqgWdbZasmrI9A-34">
          <mxGeometry x="-0.3118" y="-1" relative="1" as="geometry">
            <mxPoint x="18" y="-26" as="offset" />
          </mxGeometry>
        </mxCell>
        <mxCell id="Dfy3eXQqgWdbZasmrI9A-37" value="" style="endArrow=classic;html=1;rounded=0;exitX=1;exitY=0.25;exitDx=0;exitDy=0;entryX=0;entryY=0.75;entryDx=0;entryDy=0;" edge="1" parent="1" target="Dfy3eXQqgWdbZasmrI9A-32">
          <mxGeometry width="50" height="50" relative="1" as="geometry">
            <mxPoint x="512.5" y="256" as="sourcePoint" />
            <mxPoint x="657.5" y="277.5" as="targetPoint" />
            <Array as="points">
              <mxPoint x="530" y="327" />
            </Array>
          </mxGeometry>
        </mxCell>
        <mxCell id="Dfy3eXQqgWdbZasmrI9A-38" value="6.2 :&amp;nbsp;&lt;span style=&quot;background-color: light-dark(#ffffff, var(--ge-dark-color, #121212)); color: light-dark(rgb(0, 0, 0), rgb(255, 255, 255));&quot;&gt;[relay = false]&lt;/span&gt;&lt;div&gt;&lt;span style=&quot;background-color: light-dark(#ffffff, var(--ge-dark-color, #121212)); color: light-dark(rgb(0, 0, 0), rgb(255, 255, 255));&quot;&gt;Сигнал о&amp;nbsp;&lt;/span&gt;&lt;/div&gt;&lt;div&gt;&lt;span style=&quot;background-color: light-dark(#ffffff, var(--ge-dark-color, #121212)); color: light-dark(rgb(0, 0, 0), rgb(255, 255, 255));&quot;&gt;выключении светодиода&lt;/span&gt;&lt;/div&gt;" style="edgeLabel;html=1;align=center;verticalAlign=middle;resizable=0;points=[];" vertex="1" connectable="0" parent="Dfy3eXQqgWdbZasmrI9A-37">
          <mxGeometry x="-0.3118" y="-1" relative="1" as="geometry">
            <mxPoint x="69" y="-28" as="offset" />
          </mxGeometry>
        </mxCell>
        <mxCell id="Dfy3eXQqgWdbZasmrI9A-44" value="" style="html=1;labelBackgroundColor=#ffffff;startArrow=none;startFill=0;startSize=6;endArrow=classic;endFill=1;endSize=6;jettySize=auto;orthogonalLoop=1;strokeWidth=1;dashed=1;fontSize=14;rounded=0;exitX=-0.033;exitY=0.415;exitDx=0;exitDy=0;exitPerimeter=0;entryX=1;entryY=1;entryDx=0;entryDy=0;" edge="1" parent="1">
          <mxGeometry width="60" height="60" relative="1" as="geometry">
            <mxPoint x="497.0049999999999" y="270.3850000000001" as="sourcePoint" />
            <mxPoint x="362.5" y="270" as="targetPoint" />
          </mxGeometry>
        </mxCell>
        <mxCell id="Dfy3eXQqgWdbZasmrI9A-45" value="5 : Сигнал об изменении&amp;nbsp;&lt;div&gt;состояния реле&lt;/div&gt;" style="edgeLabel;html=1;align=center;verticalAlign=middle;resizable=0;points=[];" vertex="1" connectable="0" parent="Dfy3eXQqgWdbZasmrI9A-44">
          <mxGeometry x="0.1895" y="3" relative="1" as="geometry">
            <mxPoint x="13" y="17" as="offset" />
          </mxGeometry>
        </mxCell>
        <mxCell id="Dfy3eXQqgWdbZasmrI9A-46" value="" style="html=1;labelBackgroundColor=#ffffff;startArrow=none;startFill=0;startSize=6;endArrow=classic;endFill=1;endSize=6;jettySize=auto;orthogonalLoop=1;strokeWidth=1;dashed=1;fontSize=14;rounded=0;exitX=-0.122;exitY=0.881;exitDx=0;exitDy=0;exitPerimeter=0;" edge="1" parent="1" source="Dfy3eXQqgWdbZasmrI9A-32">
          <mxGeometry width="60" height="60" relative="1" as="geometry">
            <mxPoint x="497.5049999999999" y="370.3850000000001" as="sourcePoint" />
            <mxPoint x="130" y="340" as="targetPoint" />
          </mxGeometry>
        </mxCell>
        <mxCell id="Dfy3eXQqgWdbZasmrI9A-47" value="7 : Светодиод включён/выключен" style="edgeLabel;html=1;align=center;verticalAlign=middle;resizable=0;points=[];" vertex="1" connectable="0" parent="Dfy3eXQqgWdbZasmrI9A-46">
          <mxGeometry x="0.1895" y="3" relative="1" as="geometry">
            <mxPoint x="13" y="17" as="offset" />
          </mxGeometry>
        </mxCell>
      </root>
    </mxGraphModel>
  </diagram>
</mxfile>
